/* XPM */
static char *_cb78844724f4fadcf4f69f89efc5e5cgvKboO1xrwdTudMb[] = {
/* columns rows colors chars-per-pixel */
"53 100 256 2 ",
"   c #000600",
".  c #010A00",
"X  c #021200",
"o  c #031C01",
"O  c #0B1A07",
"+  c #111B0B",
"@  c #092505",
"#  c #16260A",
"$  c #1A3504",
"%  c #192A15",
"&  c #1A361A",
"*  c #0C320D",
"=  c #233C07",
"-  c #272C1B",
";  c #24331D",
":  c #243A1B",
">  c #2C2816",
",  c #1D3C24",
"<  c #1C3623",
"1  c #243523",
"2  c #243B25",
"3  c #2A3B25",
"4  c #243D29",
"5  c #2B3D2A",
"6  c #2A3426",
"7  c #343B29",
"8  c #373725",
"9  c #393D31",
"0  c #443D2C",
"q  c #453D30",
"w  c #1D4A1C",
"e  c #1A451B",
"r  c #1A4A0A",
"t  c #295606",
"y  c #345A04",
"u  c #254A1B",
"i  c #344A15",
"p  c #2C5C1C",
"a  c #275617",
"s  c #375B18",
"d  c #2D4A08",
"f  c #3C6B0C",
"g  c #376508",
"h  c #2D621C",
"j  c #2E6415",
"k  c #3C6C14",
"l  c #33651D",
"z  c #35691C",
"x  c #3C6C1B",
"c  c #396617",
"v  c #3E711C",
"b  c #3E7115",
"n  c #1D4523",
"m  c #1E4926",
"M  c #234425",
"N  c #234B24",
"B  c #24442B",
"V  c #2A432C",
"C  c #254C2B",
"Z  c #2A4C2C",
"A  c #2B4924",
"S  c #33422C",
"D  c #37482C",
"F  c #255223",
"G  c #2A5425",
"H  c #2C5C24",
"J  c #26512C",
"K  c #2A532C",
"L  c #2D5B2B",
"P  c #275820",
"I  c #325D24",
"U  c #325D2C",
"Y  c #38562B",
"T  c #2C4431",
"R  c #2B4C32",
"E  c #274831",
"W  c #344531",
"Q  c #3B4533",
"!  c #354B34",
"~  c #3B4A35",
"^  c #3C4B3A",
"/  c #2C5332",
"(  c #2B5632",
")  c #335B35",
"_  c #3A5636",
"`  c #2F6323",
"'  c #336523",
"]  c #356A24",
"[  c #3B6C24",
"{  c #35632A",
"}  c #3A652C",
"|  c #3A6A2A",
" . c #386827",
".. c #3E7223",
"X. c #3D7229",
"o. c #3B6233",
"O. c #396735",
"+. c #405813",
"@. c #446B07",
"#. c #477409",
"$. c #557C07",
"%. c #436D1B",
"&. c #436A16",
"*. c #447314",
"=. c #43731D",
"-. c #4B7B1C",
";. c #497619",
":. c #547C1A",
">. c #47412E",
",. c #444C3B",
"<. c #484736",
"1. c #564C3A",
"2. c #44533C",
"3. c #445C3C",
"4. c #48593A",
"5. c #4E5634",
"6. c #416D23",
"7. c #426D2B",
"8. c #466727",
"9. c #437322",
"0. c #497422",
"q. c #4C7A23",
"w. c #43732A",
"e. c #487929",
"r. c #567927",
"t. c #45623C",
"y. c #4A643D",
"u. c #476839",
"i. c #546938",
"p. c #4B7635",
"a. c #567736",
"s. c #576E2C",
"d. c #657E26",
"f. c #3B5241",
"g. c #3C6142",
"h. c #445C42",
"j. c #4B5C42",
"k. c #495846",
"l. c #555947",
"z. c #5B5D5C",
"x. c #625A48",
"c. c #4B6443",
"v. c #4D6A43",
"b. c #4A6347",
"n. c #53634B",
"m. c #536C4B",
"M. c #556B48",
"N. c #4C7446",
"B. c #55734B",
"V. c #5B754D",
"C. c #5B7B4D",
"Z. c #547646",
"A. c #5A6A54",
"S. c #5B7553",
"D. c #5D7B52",
"F. c #5C7658",
"G. c #64784B",
"H. c #646656",
"J. c #627C55",
"K. c #637D5A",
"L. c #67775D",
"P. c #756F58",
"I. c #6B7C64",
"U. c #6A7766",
"Y. c #757769",
"T. c #867E6B",
"R. c #5B8518",
"E. c #5A830D",
"W. c #67890D",
"Q. c #668A18",
"!. c #6A931A",
"~. c #76981C",
"^. c #748E10",
"/. c #598627",
"(. c #51882C",
"). c #648B24",
"_. c #668B28",
"`. c #6C9323",
"'. c #679329",
"]. c #779926",
"[. c #668836",
"{. c #699635",
"}. c #779836",
"|. c #79A22D",
" X c #7BA11E",
".X c #5D8253",
"XX c #5A804F",
"oX c #66864A",
"OX c #769847",
"+X c #638155",
"@X c #65825B",
"#X c #6A855D",
"$X c #6B8A5E",
"%X c #688758",
"&X c #749458",
"*X c #708B4C",
"=X c #6B8462",
"-X c #6E8B62",
";X c #748C6B",
":X c #738966",
">X c #739265",
",X c #7B9A6D",
"<X c #78936B",
"1X c #7C9672",
"2X c #788B70",
"3X c #7EA172",
"4X c #7DA254",
"5X c #85A518",
"6X c #839F22",
"7X c #819E32",
"8X c #84A423",
"9X c #87A729",
"0X c #87A936",
"qX c #8DB439",
"wX c #849F18",
"eX c #859C4E",
"rX c #8DAB52",
"tX c #869A77",
"yX c #828D78",
"uX c #87A379",
"iX c #8EA872",
"pX c #A0B475",
"aX c #AAC170",
"sX c #8D9689",
"dX c #96A98E",
"fX c #A5B89C",
"gX c #A2AB9A",
"hX c #A9B7A4",
"jX c #AEB5AA",
"kX c #B6C7AB",
"lX c #BACAB4",
"zX c #C3D7B8",
"xX c #C0CDB7",
"cX c #C7E0B9",
"vX c #D3D8CA",
"bX c #CDD6CB",
"nX c #D5E5CA",
"mX c #D9E7D6",
"MX c #DBF0C9",
"NX c #E4F4DA",
"BX c #E9F3D9",
"VX c #E9EBE8",
"CX c #EDFCE4",
"ZX c #EDF3EC",
"AX c #EAF6E7",
"SX c #F3FEEC",
"DX c #FAFEED",
"FX c #F2F8EA",
"GX c #F4F5F3",
"HX c #F5FDF3",
"JX c #FAFEF5",
"KX c #F6FDFA",
"LX c #FDFEFC",
"PX c #F6F5FA",
"IX c #EDF0F2",
"UX c #DFECE2",
/* pixels */
"LXLXLXLXLXLXLXLXLXPXPXLXLXPXGXDXDXLXLXPXLXLXLXKXDXi.$ + :XCXJXKXKXIXLXLXKXLXJXPXJXJXLXLXLXJXLXKXLXLXLXLXLX",
"LXLXLXLXLXLXLXLXLXPXLXPXIXLXJXJXLXFXLXPXLXLXIXBXnXa.= i :XNXVXIXKXLXGXPXLXGXLXLXLXLXLXLXLXLXLXLXLXLXLXLXLX",
"LXLXLXLXLXJXLXLXLXLXLXPXLXLXVXVXJXJXZXLXLXIXKXdX  eXaXpXG.  vXJXIXIXLXLXIXLXLXJXLXPXLXLXLXLXLXLXLXLXLXLXLX",
"LXLXLXLXLXLXLXLXPXLXLXLXPXGXLXLXHXAXKXJXKXAX:XG.i.eXrXrX[.i.P.T.KXAXKXKXLXLXLXLXLXLXLXLXLXLXLXLXLXLXLXLXLX",
"LXLXLXLXLXLXLXLXLXPXLXLXIXLXLXZXHXSXHXAXJXDX  s.d.eX7XrXeXG.=   BXSXSXSXJXDXFXLXPXLXLXLXLXLXLXLXLXLXLXLXLX",
"LXLXLXLXLXLXJXLXLXIXLXIXLXLXVXLXAXX S @ : +.i +.aX7X0X].rXrX+.> i 5.A % X JXLXLXLXLXLXLXLXLXLXLXLXLXLXLXLX",
"PXLXLXLXLXJXLXLXPXLXLXVXLXPXGXHXcXu $ Y = i $ _.qX6X6X6X6XaX+.= i r i : # DXmXKXLXLXLXLXLXLXLXLXLXLXLXLXLX",
"LXLXLXLXLXLXJXLXLXLXKXLXLXHXJXO o ,XJ.8.d d 7X`.wXwX9XwX9X0X6X}.$ d s.+XiX. ~ HXLXLXLXLXLXLXLXLXLXLXLXLXLX",
"KXLXLXLXLXLXPXLXLXLXLXFXJXxXsXn.u.oXp.a.+.#.7X~.5X5X5X X8X9X9X}.d &.[.a.&Xi.M.tXvXJXHXLXPXPXLXLXLXLXLXLXLX",
"LXKXLXLXLXLXLXLXPXIXLXLXSX:X  iXOX*X4X{.@.@.qX9X5X5X5X5X5X9X0X0X@.@.OX[.s.iXyX. gXDXKXLXLXLXLXPXLXLXLXLXLX",
"KXLXLXLXLXLXLXLXLXLXDXSXDXiXi +.&.y #.g 7X0X6XwX5X5X5X5X5X9X X0XrX:.:.[.&.d 8.= MXCXCXHXLXZXLXLXLXLXLXLXLX",
"KXKXJXLXLXLXLXLXPXDXAXBXBXiX= %.@.;.$.g qX0X6X9X5X5X5X5X5X8X X9X].].y y :.r.s $ pXCXDXCXVXLXLXPXLXLXLXLXLX",
"KXKXLXLXLXLXLXLXHXLX. X = +.eXQ.'.|.|.Q.6X6X9XwX5X5X5X5X9X9X8X|.qX0XE.'._.R.[.eX%.$ . ; CXFXGXLXLXLXLXLXLX",
"KXLXJXKXLXLXLXLXbXgX>.5.s.:.`.!.~.qX~.Q.6X6XwXwX5X5X5X9X5X9X X X~.~.E.~.!._.'.[.d.8.d 5.gXZXJXLXLXLXLXLXLX",
"KXKXLXKXLXLXLXPXz.  H.+.rX].@.qX X0X^.$.d.^.$.wX9X6X9X5X X8X^.W.!.!.E.E.`.`.R.).[.G.*X5.. yXLXGXLXLXLXLXLX",
"JXLXJXLXLXLXLXPXsX  :XG.a.d.!.!.~.$.6XwXwXwX$.wX9X6X9X9X9X9X!.W.W.R.~.!.E.`.).).[.[.a.H.. jXLXPXLXLXLXLXLX",
"LXLXGXJXLXLXPXLXY.  sX#X*X`.E.W.W.E. XqX9X8XW.~.6X6X6X7X9X9X].Q.E.!.!.E.!.Q.R./.[.r.iXV.  jXLXPXLXGXLXJXGX",
"IXLXLXLXPXLXPXLXLXLXX o eX).~.#.E.W.!. X9XqXW.W.d.6X0X0X`.Q.$.Q.!.'.E.!.!.g E./.[.rX. 5.DXLXLXLXPXLXLXGXJX",
"LXGXLXLXLXVXLXPXvXjX: Y *X:.R.$.#.!. X0X~.7X$.].^.].6X~.!.Q.!.`.'.!.E.'.!.f E.(./.[.$ 5.vXvXLXPXLXGXGXJXLX",
"PXLXVXJXJXLXLXJXH.X i i.s.y @.E.Q.!.!.qX!.~.$.~.~.`.$.d.Q.!.!.Q.R.R.R.'.!.'.R.#.g s.8.5.  dXJXJXLXLXLXIXZX",
"LXGXLXFXJXBXBX,.n.= y.s -.b (.!.`.R.Q.|.$.$.$.^.Q.^.Q.`.`.Q.W.d.E.R.{.).R.).(./.-.c +.s 4.M.k.HXLXVXLXLXLX",
"PXGXIXFXJXDXnX. Y 5.G.s t (.R.'.).R.'.`.@.@._.].`.Q._.~.`.Q.Q.].R.b /././.'.R.{.*.t w.i.Y : . DXLXJXPXLXJX",
"LXLXLXDXDX  # *X+.C.s s =.(.(.{.'.'.-.#.R._.}.d.`.d.$.d.Q.Q.Q._._.r.f R.{.'./.{.*.g 6.8.i.8.V.X 6 IXLXLXGX",
"LXGXJXJXCXO i i.a.+.%.9.y =.(.(.(.'.R.g _.:.).Q.`._._.`._.).Q.).r.[.g (.{.;.'./.k c y c p.p.N.@ 6 LXVXGXLX",
"LXLXLXHXDXO @ s &.&.&.&.j g j g r v b f y g {.}._._.).)._._.{.}.t s ;.;.&.t y y g g e.j p.' U o Q LXLXZXLX",
"LXLXZXjXY.i.8.s.a.[.*.;.b b b j b E.b b *.f :.#.r._.[._.).:.#.&.&.;.%.;.;.@.f g b y v e.e.w.a.A l.z.jXLXGX",
"PXVXLXl.X tX$XOXOX{.*.*.b -.(...b b b -.q.*.f g ;./._.[.r.;.@.&.&.%.&.&.b -.-.R.-.-.=.q.6.e.| p.A.  gXPXZX",
"LXLXZXU.  #XoXr.=.@.*.*.-.v j j b b b b %.;.k ;.y f &.*.g f k *.;.0.6.%.f *.g f g q.k j 7.p.s C.Q + sXJXJX",
"GXLXLXY.; L.%X*X/.g R.g b b b (.v b (.f c =.&.=.k k c g g c v =.%.*.0.-.k /.&.-.;.q.q.%.e.p.p.} U.. sXLXGX",
"LXIXJXLXDX. = 8.f y {.'.|.(.b -.-.v e.b k (.x %.0.9.0.9.9.9.9.=.x c &.&.;.{.[.{.q.y 0.x s j p.@ ; PXLXZXJX",
"LXLXLXLXFX# $ s.&.(.R./.(.b b b v b v b 0.0.%.%.x %.%.9.9...v z q.;.(.*.*././.'./.;.0.w.[ 6.oX@ 2.HXGXLXLX",
"LXLXLXIXHXO $ 6.[.4XR.(.g f (.b v v v (.=.c k q.0.9.6.9.9.9...0.%.q.OX;.g f -.{.{.OX%.&.e.l | o 3 JXVXLXLX",
"KXPXJXKXAX* d p.6.6.9.;.b v -.=.b R.b =.=.=.0.v x %.;.9.9.6.9.0.-.g {.R.(.#.E.-.:.&.0.0.x 7.Z.@ _ JXJXJXHX",
"LXLXVXJXSXX $ C.7.[ 9.0.=.-.v g b b b b =.=.=.*.*.=.6.=.=.=.9.0.-.;.'.R.'.b #.g @.f =.6.7.p.p.@ M AXKXZXLX",
"LXVXLXU.  y.Y 8.p.6.[ 9.9.=.0.%.v b b =.v =.=.v v =.=.9.%.=.9.;.f f -.(.'././.-.;.&.0.w.a.p.Z.N h.. dXJXIX",
"KXZXlXn.% Z u } 8. .9.w.9.x 9.0...v v v =.=.=.v %.=.=.9.%.0.=.9.=.=.g R.{.'./.g :.&.6.6.7.u I o.V + n.bXZX",
"KXjXX + h.: F u s l 7.e.6.c z c ....(.b =.v 9.v 9.=.=.9.=.9.=.=.%.q.k (.{.{.q.t %.&.w.|  .u u K V W +   ZX",
"LXGXKXU.. B.Y p H a p s s z 6.[ ......v x =.9.9.9.v x =.=.0.9.=.c x x q.(.q.q.*.c t x i I } } U _ . tXKXAX",
"LXIXKXU.@ 3.) Z.` a a r d z p.e.X.....z z z ..9.9...9.9.=.9.=.6.9.z 6.x x x [ e.s r a r a U O.o.m.  hXAXAX",
"PXbX  ! h.3.U r a ' [ l a ' 7.| ..X...z z z [ 9.9.9...%.9.=.6.%.c a [ %.p.w.x w.&.r  .7.} G G _ _ b.1 . HX",
"JXbX  k.h.Z o.u { ] { h p  .7.8.X.[ h j ] z ..[ w.9.[ 9.e.e.6.c 6.' s ] [ [ [ w.l p p  .} L L ) ! F.W o SX",
"LXbX. 6 I.M G O.L ] ] ` ' | p.7.X.] j t h j l [ ..6.9.w.9.v %.c ' a r s X.e.p.p.X.| ' { } { H G u b.% X HX",
"LXvXbXA., t.I H { ] ] ` ]  .[ s a a j a [ h l l l ..w.w.[ z c  .| ' ' l h a j ] ' ' s I } O.7._ _ % U.bXHX",
"LXPXPXI.X _ O.O.` | ] `  .l s a t a h h X.] z l c ] 7.6.] z l l I ' ' H a r a ] ' ] { ' } | } U m.. dXHXUX",
"LXHXJXA.X B.O.P ` ] ] X.8.[ ' s j l ] j ..h l [ z ' [ [ [ l l l [ I p H  . .] ` ] ' ] ] ] ` ' o.m.. hXHXAX",
"PXGXLXU.@ _ { { ] ] X.X. .x 6.x ] ` X.h ] h l z ' ' z ' ' ' ' I | | '  . .] h h h h ` ] ] ` ' Y _ O =XVXKX",
"LXbX. X _ e * r { ] X.X.] k l z l [ ..h X.l ` ] ' ' ' ' ' [  . .a I  . .' h ] X.] ] ] ` l p a u & 5 % . CX",
"LXxX. ! B F J ` ` ] [ [ l c x ..(.X.] j z h ` [ ' ' l l I ' ] | [ ' ' ' ] ] ` h h h ` h `  .p r ! W 1 X VX",
"JXnX. h.J m ) O.] ` ' l h ....z v ....] l ` ' ' ' l l l l ' ] ' h ` ] ] h h ] ] h X.` ` O.L O.L A _ W . HX",
"% V 2 e J N.` ) { { t a e...z (.v z j l ] ] ' ` ' l l z z ] h ] ] ] h h z ] j h ` ` P J O.O.O.L ) A & A & ",
"# & A u n O.J ` U { a p (.X.j ..x z l l ` { ` ' ] l l z l l l ' ] h h ` ] ] ] h ` ] ` ` { ( ) ) ) & A B 4 ",
"# 2 F.b.N.@ L e w a L | X.e.(.z j l ] ' p p ` | ` l l l l l ] ' a h ` ] ] ] ` ] ` { ` P P w n m M ) ) , , ",
"2 : _ ) n L F e L I }  .` ] X.h h ] | { a F ` { ] ] ] l l l ' ' r h ` ] ` ` h p ] O.` ` O.J e e n m B g.* ",
"& & F.C n e m F ) u.Y U O.a r h ] ` ' H H H { { ' ' l l l ] ' ' P P ` ` | ` ` a { { O.O.O.o.J J K n C C , ",
"& : A C e J F F u G u s u.I a O.} { H P J L { { ' ' ] l ' ] '  .w P P ` { O.{ ` w P ( L J G n ) & / C m < ",
"& $ _ & m ) ( J Y G G u e L O.` H { ( P F F { O.{ ' l ' l ' ' { r P ( ` { ` { O.P w F F J / C ( ( & & B B ",
"& 2 4 m m C / N K G G A u Y o.N.{ * w L w L N.L 7.' [ ' } 7.{ { w ` P r e O.O.{ F N N C K ( Z C _ W ! 4 % ",
"1 5 < R & n ) ) Z Z A A M N G K L w u K C J ) L U I } ' ' ' H ' P J J w m H L ( w n N G K K C C , V ! & ^ ",
"  . f.* & m C & Z Z Z A N M M e N K J J ( N w { U I { I U { G G m m P P w w w m e N C Z Z Z R C V O < 5 . ",
"mXhX% m < m ) / ! Z Z Z Z Z C m n ( J C ) J w ) u.{ { { } O.G C J P J ( L m m J N C / / / R J Z V 3 5 # bX",
"PXbX  f.f.E E E R E Z Z Z ( / K C A J C / K F U o.U } } O.o.G G J J K K ( ( ( C J / R E R / R Z ! 1 5   KX",
"LXmXO < E R E R Z A A B Z R J J ( C J K C / K N G H O.{ K G C K N N C m J J / m R R E m B R ! R V ! 5 . SX",
"VXjX  f.T E R / V A B C R C E m C J Z C / Z Z F N G U U G G N / / / / J R / / R E E E B B E E E W 2 V O bX",
"    k.< E E 4 , , V R R ( R m m n / C C ( / M G G u F F J ) C m Z J / / C m m C E / / E m B E V B 2 W 1 . ",
"6 6 5 < B , / , < , B E C m m m m J J C Z K Z N K G m J ( J J N N J K J J C M n n B B B < , E , , 4 3 % ^ ",
"  + % E , B < V < , 4 B B n n e w J Z N Z A A A C C ( ( J J Z K n J C C K C n n B E B , < 4 E E ! ! 3 6   ",
"PXjX+ < % A & * < 4 4 V m m n n n / / M M M M Z C J ( J J C C C n m C C / C n B B B B 4 4 < < < o % ; X HX",
"KXUXX f.n * B & 4 T T E B B m m n K Z M M M M Z ) J J J / K C & n n n C / B < C , 4 B E T 1 < 4 & ! 3 o JX",
"HXnX@ I.1Xb.g.@ 2 V T 5 4 m B n m J C , M A M B ( J m m J / R m B M m E R B , E R 4 4 4 T 4 < g.B.2Xm.! mX",
"JXvXk.F.I._ _ & 2 V T 5 4 V M n C R B , V B B C m m f.( C m B E n B B C E B 4 T E 4 T 4 T < < k.b.S.K.h.SX",
"HXnXU.=X#Xt._ @ 2 S 5 5 4 V B M m B B m B 2 4 Z m E ( R m , B B n B E , E E 4 5 5 < T T T < + g.m.v.1X1XnX",
"DXmXL.:X<XD.D.o 2 T 5 1 6 4 V 2 , E B 4 4 2 2 E m m m E E E B V < 4 4 4 E T 4 5 4 < 5 5 T 4 & A.@X1X-XF.SX",
"DXnXH.tX-X-Xv.@ : 1 ! 1 6 4 6 V 4 T 4 T 1 6 4 4 , E , B R 4 4 , ; % ! 4 5 5 4 f.1 < ! W 5 3 # S.@X1X-XD.SX",
"BXnXn.J.D.A y.V.! # ; 6 6 % % V V 4 ! F.1 % 6 1 f.E , 4 E T 4 5 ; W A.T T f.< O % % % O % k.b.c.Y Z.#X=XNX",
"DXnXfX<X@XZ.v.v.D : W Q ! Q ! 3 V 5 6 k.5 ; - 5 4 4 4 < T 5 & % % - k.7 6 6 5 f.5 f.! ! & ! c._ V.+XD.S.CX",
"DXCXDXkX@XD.C..Xm.n.U.k.k.A.H.; + 1 - - 8 - - + % 4 5 W 5 - - 6 8 % 8 6 6 + 9 H.k.k.3.A.m.3.3.y.Y y.C.3.BX",
"CXBX:X1X1XXXC.C.B._ j.k.,.j.A.7 ,.S l.8 > 8 x.8 # 7 ; S 7 - <.,.> > 8 7 k.9 Q Q k.k.k.k.S.V.m.-X>X%X,Xc.MX",
"HXnXn.1X>X.XD.D.N.2.4.n.A.l.A.,.,.7 <.> 8 0 z.1.- 7 7 0 - + l.x.0 8 q 8 q q k.Q k.A.A.h.J.J.D.,X$X,XtXi.SX",
"SXlX=X;Xu..XO.L 3.y.j.l.l.~ ~ # > 8 8 <.x.1.1.<.Y.8 O # q x.<.8 <.q q 8 6 - 9 ,.n.j._ b.<X;X<X>X,XJ.cXCXSX",
"JXNXA.K..X%X.XN.t.y.3.c.n.2.2.7 8 8 0 l.> 0 x.x.Y.> 0 8 q H.q <.0 1.q 9 q 6 9 9 k.k.h.b.V.N.uX$X:XV.fXDXCX",
"SXlX;X.XN.3X%X.Xu.t.t.3.2.k.Q 7 6 2.q l.> > T.P.P.>.1.1.1.1.1.1.# 8 <.<.^ 6 W ~ ,.b._ j.D B.<Xy.=XG.kXHXAX",
"HXNXF.<X$XuX.XN.C.) D.m.n.l.5 ,.7 ,.Q ,.0 8 1.1.P.1.1.>.1.1.>.0 <.>.,.<.,.Q ! T h.n.m.A.t.y.y.J.L.K.xXJXKX",
"CXnX_ 2X3X.X$X.XN.U D.m.3.2.1 Q W ~ >.S 5.1.0 <.x.1.x.1.0 0 0 1.,.7 Q S ,.^ 2.~ h.g.=XK.c.y._ tXtX#XlXAXZX",
"DXAXSXhXF.%XN.o.N.D.J.S.j.h.l.^ ~ ~ ,.Q 5.<.8 1.x.1.1.0 1.q 1.0 >.>.,.Q ^ 7 ! V h.! ;XF.Y 4.Y G.#XA.kXKXKX",
"SXAXSXdX=X=XD.N Z.XX.XD.c.c.A.^ 2.W D ,.D 7 <.5.>.1.1.>.q 0 q 0 Q Q 2.Q ^ ! f._ k.g.D.B.t.v.M.V.L.tXzXSXKX",
"JXFXJXhXI.F.o.1X$XN.<X>XF.=XF.m.h.D S 2.D D 1.8 # >.5.<.0 > 8 q ! 7 Q S h.f.m.b.h.b.3.v.-XK.J.,XdXCXSXHXLX",
"VXJXSXhXU.1X=XC..XN.>X>XC.D.S.v.c._ _ h.2.4.l.D D 8 8 8 <.S k.<.k.h.2.^ h.h.h._ c.h._ _ -XV.N.=X@XfXnXSXJX",
"LXIXJXsXn.1X<XO.>X,X,X<XC.S.<Xt.b.b.b.h.4.n.j.4.2.8 % # S 7 n.l.j.h.n.h.b.h.b.c.g.Y v.v.J.@X#X-X<XB.hXHXSX",
"LXPXLXHXSXL.;X;X>X>Xu.Y u.N.t.t.c.O.b.b.3.3.h.3.l.4.2.j.4.2.j.j.c.2.b.3.b._ 3.v.S.J.t.t.Y J.:XM.@XJ.xXDXDX",
"LXLXGXZXKX:X=X@X$XtXu.U u.t.t.C.O.c.u.b.3.c.c.c.3.M.c.3.n.l.y.n.c.3.j.h.b.3.t._ B.V.u.v.y.M.V.#X:XG.kXCXCX",
"LXLXLXJXLXCXSX+X,X,XXXXX-Xv.) _ c..XB.D.K.D._ m.2.c.j.4.c.3.2.y.3.j.y.3.v.t.c.t.Y v.Z 2.:XK.3.uX:XG.xXDXSX",
"PXLXLXGXHXkXhXy.:XB.&X%X%XD.Z.u.N..X.X<XD.@Xv.v.B.y.c.c.c.c.4.c.y.t.S.4.c.t.u.N.N.Y S.K.=X;X;X:XtXG.xXCXAX",
"LXLXLXZXDXL.A.u M.V.,X<X>X@X=X.XC.a.%X3XN..X@XS.@XY 3.y._ 4.t.3.y.3.>Xy.t.i.u.%Xt._ tX<XA.M.L.I.V.5.kXSXLX",
"LXIXLXJXJXI.:XA v.>X$X%X-XD.D.V.C.>X&X,X-X>XD.$XsXv.D.J.M.J.G.C.y.3.:XZ.Z.V.Z.tXJ.V.K.tXDXDXNXBXCXnXCXJXFX",
"LXPXKXHXKX2XU.5.J.V.,X>Xv.C.D.@XXXuX-X%X3X>XB.-X>X.X@XV.J.#XV.C.y.i.J.oX+XC.%XtX:XK.2XdXDXBXSXDXDXCXHXLXPX",
"LXLXLXZXHXSXSX4.;Xy.SXCXF.1XV.+X>Xa.XXXXu..X,X=X@X;X:XM.=X<XM.J.G.J.J.-X>XM.#X+XJ.:X#XyXJXCXHXDXSXJXHXLXLX",
"LXLXLXKXLXJXmXfXjXsXHXmXY.2XL.gXfXfXuXoXJ.+X;XdXfXjXhX4.tXvX2XL.=XJ.V.:X1XK.1XkXhXjXP.jXGXFXJXHXLXJXLXLXLX",
"LXLXLXJXGXLXLXVXLXLXZXZXW U.H.GXJXSXfXJ.tXt.c.hXHXKXDXn.tXDXyXk.tX5.$ #X-XK.1XHXDXSXH.Y.JXLXZXLXLXLXLXLXLX",
"LXJXLXLXLXJXLXLXVXFXHXJXZXvXbXKXAXAXlXC.a.uXCXmXJXFXFXkXBXDXmXmXNXzXv.<X;XMXnXDXCXJXvXvXLXJXZXLXLXLXLXLXLX",
"LXGXJXLXLXLXHXZXLXJXLXVXJXHXKXHXJXDXzXD.#XtXDXAXJXJXDXDXDXmXSXSXCXBXv.:X$XCXNXCXDXAXJXJXGXLXLXZXLXLXLXLXLX"
};
