/* XPM */
static char *_ca5c8e20db04aabb89230ad61a2b4586KtEWt5cWzBOiRzG[] = {
/* columns rows colors chars-per-pixel */
"53 100 255 2 ",
"   c #000B02",
".  c #000702",
"X  c #001303",
"o  c #011A0C",
"O  c #001708",
"+  c #021A14",
"@  c #101E0D",
"#  c #00220C",
"$  c #002606",
"%  c #042816",
"&  c #172B1A",
"*  c #03351B",
"=  c #19341B",
"-  c #29301A",
";  c #083826",
":  c #163928",
">  c #11352C",
",  c #283A29",
"<  c #373A29",
"1  c #393F32",
"2  c #433C2C",
"3  c #06472B",
"4  c #19442C",
"5  c #0C4534",
"6  c #0C4B35",
"7  c #0D4D3A",
"8  c #034A35",
"9  c #134433",
"0  c #144A35",
"q  c #134C3B",
"w  c #1B4C3C",
"e  c #1A4635",
"r  c #02543C",
"t  c #0D523C",
"y  c #0A5637",
"u  c #14523D",
"i  c #19543B",
"p  c #03572A",
"a  c #38442C",
"s  c #38582B",
"d  c #234C3A",
"f  c #264837",
"g  c #3D4C33",
"h  c #3A4836",
"j  c #26523B",
"k  c #3A5637",
"l  c #27442C",
"z  c #046638",
"x  c #16673D",
"c  c #3B6035",
"v  c #47432E",
"b  c #474936",
"n  c #554C3B",
"m  c #44543B",
"M  c #46573A",
"N  c #56513D",
"B  c #45623C",
"V  c #48673C",
"C  c #4C713E",
"Z  c #604F3D",
"A  c #184F41",
"S  c #0B5B45",
"D  c #085A46",
"F  c #145442",
"G  c #1B5342",
"H  c #135B45",
"J  c #1A5B45",
"K  c #145C4A",
"L  c #1A5D4A",
"P  c #1C5648",
"I  c #145E51",
"U  c #254E43",
"Y  c #275647",
"T  c #365747",
"R  c #2F594F",
"E  c #0C644C",
"W  c #04674B",
"Q  c #14624B",
"!  c #1B624D",
"~  c #176245",
"^  c #04754A",
"/  c #147949",
"(  c #036C54",
")  c #0B6C55",
"_  c #0B6E5A",
"`  c #076854",
"'  c #146552",
"]  c #1B6451",
"[  c #136B54",
"{  c #186C58",
"}  c #027354",
"|  c #027C54",
" . c #04755C",
".. c #0A745C",
"X. c #037A5D",
"o. c #0A7A5C",
"O. c #0A7455",
"+. c #13735C",
"@. c #1A735C",
"#. c #177A5A",
"$. c #23644D",
"%. c #286549",
"&. c #236452",
"*. c #266955",
"=. c #386957",
"-. c #257459",
";. c #327050",
":. c #067561",
">. c #0A7562",
",. c #057C61",
"<. c #0B7B63",
"1. c #147561",
"2. c #167C65",
"3. c #056F61",
"4. c #277A64",
"5. c #377768",
"6. c #485A44",
"7. c #555945",
"8. c #4D5C55",
"9. c #625A49",
"0. c #4B6344",
"q. c #4D6A43",
"w. c #4A6748",
"e. c #526C45",
"r. c #536B4C",
"t. c #556649",
"y. c #4D7145",
"u. c #56734B",
"i. c #5A744D",
"p. c #5B7B4D",
"a. c #547747",
"s. c #496853",
"d. c #586B53",
"f. c #44765B",
"g. c #5C7453",
"h. c #5D7B52",
"j. c #567655",
"k. c #637D55",
"l. c #65795A",
"z. c #6C6654",
"x. c #447664",
"c. c #557566",
"v. c #6D7968",
"b. c #03845C",
"n. c #0B835C",
"m. c #088457",
"M. c #178759",
"N. c #288958",
"B. c #2C945B",
"V. c #2A9458",
"C. c #349A5B",
"Z. c #37975B",
"A. c #298751",
"S. c #3DA45F",
"D. c #038564",
"F. c #0B8364",
"G. c #028964",
"H. c #0B8B65",
"J. c #0A8969",
"K. c #128466",
"L. c #168967",
"P. c #199468",
"I. c #10906C",
"U. c #278769",
"Y. c #388868",
"T. c #2A9767",
"R. c #349564",
"E. c #349C63",
"W. c #389968",
"Q. c #269A75",
"!. c #2F9473",
"~. c #3CA464",
"^. c #3AA46A",
"/. c #29A374",
"(. c #36A676",
"). c #5E8351",
"_. c #528C55",
"`. c #65835A",
"'. c #6B845B",
"]. c #668859",
"[. c #718F5B",
"{. c #41A55F",
"}. c #458667",
"|. c #558469",
" X c #44986A",
".X c #509276",
"XX c #6C8864",
"oX c #758968",
"OX c #729364",
"+X c #78956A",
"@X c #7C8A73",
"#X c #719174",
"$X c #42A564",
"%X c #44A769",
"&X c #49A775",
"*X c #51AB79",
"=X c #6DA176",
"-X c #869978",
";X c #858E7D",
":X c #88A67A",
">X c #2CA983",
",X c #38AB86",
"<X c #78978B",
"1X c #709186",
"2X c #55B586",
"3X c #7AA595",
"4X c #6EAD90",
"5X c #7FA8A2",
"6X c #8B998E",
"7X c #93A786",
"8X c #8EAD92",
"9X c #A4B39A",
"0X c #90AFA3",
"qX c #B1BAAA",
"wX c #A9B8AB",
"eX c #B6C7AC",
"rX c #BBC8B5",
"tX c #ABC4B5",
"yX c #92C4B1",
"uX c #C4CEBA",
"iX c #B6D3CA",
"pX c #ACE0C9",
"aX c #CED7CB",
"sX c #DAE9D7",
"dX c #D6EAD0",
"fX c #E8F9DC",
"gX c #E4ECD9",
"hX c #DBEAE5",
"jX c #DAF8EC",
"kX c #DDF8F1",
"lX c #CCEBE5",
"zX c #E8ECE9",
"xX c #EAF7E9",
"cX c #F4FEEC",
"vX c #FAFFED",
"bX c #F2F9E8",
"nX c #F6EDF4",
"mX c #E4FDF5",
"MX c #E5FFFB",
"NX c #ECFEFB",
"BX c #EBF7F4",
"VX c #F3F5F5",
"CX c #F5FDF3",
"ZX c #FAFEF4",
"AX c #F5F6F9",
"SX c #FCF6FB",
"DX c #F3FEFD",
"FX c #FBFFFF",
"GX c #F9FEFF",
"HX c #FFFDFF",
"JX c #FEFEFF",
"KX c #FDFEFE",
"LX c #FDFDFD",
"PX c #FAF5F3",
"IX c #F0EBEC",
/* pixels */
"HXHXHXGXGXGXGXGXVXGXSXZXKXZXAXLXAXKXHXSXSXSXGXNXNXjXjXjXxXLXnXSXHXAXKXAXVXKXKXLXHXZXHXHXSXZXZXHXHXKXKXKXKX",
"HXHXHXKXGXGXGXGXAXKXKXSXHXGXVXGXKXKXSXnXHXSXGXMXjX=.X O c.LXHXSXAXHXHXAXKXAXIXKXHXHXHXZXKXHXKXKXKXKXKXKXKX",
"HXHXHXGXGXGXGXGXGXKXKXSXHXKXKXGXVXKXSXHXSXLXDXaX8X|.}.s.c.1XBXVXAXLXnXDXVXSXKXAXKXKXKXKXKXKXKXKXLXHXHXKXKX",
"HXKXKXGXKXGXGXKXKXSXSXSXHXKXKXAXKXAXLXHXHXBXNX3XX *X=X4Xf.X jXDXNXhXGXGXBXKXHXHXKXKXKXKXKXGXGXKXKXKXKXKXKX",
"HXKXKXGXGXKXKXKXKXSXSXHXHXSXAXAXGXzXGXLXGXNXo |.}. XZ..X.X|.c f NXDXMXzXDXBXHXIXKXKXKXKXGXGXGXGXKXKXKXKXKX",
"LXKXKXKXGXGXKXKXHXSXSXHXSXAXGXGXhXNXjXmXjXjX$ %.*X*XZ. X%X*Xp * jXmXlXDXhXzXDXGXKXKXKXKXGXGXGXGXKXKXKXKXHX",
"LXLXLXZXGXKXKXKXHXSXHXHXSXKXGXBXjXO # O % % %.;.*X{.*X X*X*Xx * 6 ; > o   DXNXAXGXGXLXHXGXGXGXGXKXKXKXKXLX",
"ZXLXLXLXKXGXKXKXHXSXHXAXVXDXmXtX<X%.x.i i ~ ;.N.*XZ.$X$XZ.*XA.x y i %.5.=.<XtXNXGXDXLXLXHXKXLXHXKXKXKXKXKX",
"LXZXLXLXKXKXKXHXSXSXHXIXGXDXDX: % 4XR.$.-.z  X%X$X~.S.{.$X%X%X%Xp p $.Y.4XX U MXDXBXGXKXLXHXSXSXKXKXKXKXKX",
"ZXLXZXLXGXGXKXKXHXHXAXLXNX1X; |..XZ.N.&XA./ 2X~.$X$XS.{.{.%X%X%Xz M.&XY.}..X1X% tXNXGXVXSXHXSXHXKXKXKXKXKX",
"LXLXKXKXKXGXGXGXAXGXNXjXNX<X# .XB.V.(.^.-.M.~.%X$X~.{.{.$X%X%X*XM.M.T.&X}. X}.X iXMXNXxXKXIXnXHXKXKXKXKXKX",
"ZXLXKXKXKXKXGXGXAXGXNXMXmX4X6 x z x m.p ^.2X&X~.$XS.{.{.$X$X%X%X(.^.z z / z x i pXMXmXDXLXHXHXHXHXKXKXKXKX",
"LXLXLXKXKXGXGXGXDXNX0X#XyX.Xx A.N.C.^.M.(.^.~.~.$X$XS.{.S.~.^.(.S.E.M.A.B.N.Y.y 4X0X8XwXhXBXKXKXHXKXHXKXKX",
"LXLXKXKXGXGXGXGXDXNX  : * / *X$X~.~.E.V.~.(.&X^.$XS.{.{.~.~.~.~.^.E.E.E.E.N.&X*Xp 3 X ; NXDXBXVXKXKXKXKXKX",
"HXHXKXKXGXGXLXDX6X+ x.%.*XY. XB.%X&X~.M.^.^.C.C.$X{.{.$X~.~.^.E.~.~.E.A.E.E.N.R.W.Y.x.f.% 0XGXDXKXKXKXKXKX",
"HXKXKXKXHXLXLXAX1XO f.f.}.W.C.^.%XV.~.S.V.^.C.S.$X$X$X$X~.~.E.V.V.V.~.C.V.^.T.W.W. X%.=.  wXBXKXKXKXKXKXKX",
"AXKXSXHXHXHXnXKX6.. #X2X}. XB.B.Z.Z.C.~.S.~.S.S.$X$X X%X%X$XS.V.C.Z.Z.C.^.V.T.R.W.R.4Xc.. wXAXHXKXSXGXKXVX",
"GXGXKXHXSXSXnXKXiXc.*.J }.N.E.V.A.S.S.~.~.~.V.S.S._.{.$X$X{.C.C.C.V.V.V.E.V.V.R.R.Y.t x.<XaXHXnXKXDXVXDXKX",
"GXVXKXSXSXKXKXDXMXMX$ * 2X^.E./ x C.C.S.~.S.A.C.Z.{. X~.{.Z.Z.C.A.C.W.C.V./ M.R.W.2X* *.kXBXLXSXKXKXSXAXKX",
"KXAXKXLXSXKXDXNX#XX %.-.-./ M.B.V.C.C.~.^.S.V.S.Z.Z.{._.Z.Z.C.C.Z.Z.B.B.E.B.N.M.N.[ K &.  tXNXGXLXKXKXAXGX",
"KXLXVXKXKXBXjXNX.XX *.#.#.#.P.T.(.V.E.^.V.V.C.S.Z.Z.Z.Z.Z.Z.C.C.C.S.S.R.E.W.M.O.W -.-.&.+ 5XkXAXGXVXHXVXLX",
"HXIXHXKXhXGXlX  q 5.4.U.W (.Q.U.^.M.T.C.M.m.V.V.R.Z.Y.Z.E.E.C.B.p A.R.E.T.W.(.2XL.z !.-..X> . AXDXDXLXDXLX",
"IXKXSXVXDX3X1XP -.4.2.^ ^ o.Q.(.T././.M.P.V.V.T.R.R.R.Z.R.Z.C.B.T.N.M.R.T.!.T.!.n.O.W -.{ 5.> 5X0XLXDXGXLX",
"HXZXSXLXNX  ; 5.U.#.o.} o./.>XQ.P.(.P.z /.(./.T.R.R.W.W.R.R.B.T.^.T.^ T.T.Q.Q.,Xn.| } o.4.@.,X+ & DXAXDXDX",
"SXPXKXLXNX; 6 -.) L.o.| | } F.} m.n.M.n.m.M.Q.(.T.W.W.W.W.T.T.T.^ | m.M.M.m.m.| b.^ F.L.o.2.U.; R NXDXNXNX",
"HXSXVXzXmX; 5 -.#.L.| I.,.D.X.| m.n.n.m.m.n.M.P.Q.!.T.T.T.T.(.(.m.m.m.m.m.b.b.| b.b.G.X.<.O.>.8 =.kXMXAXDX",
"PXHXLX8.  1X1X!.,X,XF.I.X.G.F.F.D.n.b.b.m.b.m.o.n.U.!.(.T.| ^ W m.m.b.m.m.b.b.b.G.G.I.b.I.<.<.4.R . <XNXjX",
"HXBXGXv.% 1XY.Y.U.P.b.b.X.I.F.D.H.b.G.G.G.b.b.| n.L.L.L.m.m.m.m.m.b.H.m.b.n.b.b.b.b.G.X.J.F.<.U.x.+ 0XNXzX",
"VXzXLXv.  4X.X(.K.O.G.G.I.G.D.F.H.D.G.G.G.b.b.D. .} ( W ^ } D.G.G.b.b.b.b.I.b.b.H.b.G.| X.n.K.) x.. 6XDXAX",
"HXLXLXhXMX; 3 Y.U.^ P.P.>Xb.b.I.b.G.G.G.G.b.G.J.H.F.J.I.I.J.G.b.I.m.b.b.H./.Q.P.I.D.H.n.X.<.Q.r U BXMXBXGX",
"GXAXVXDXNX* ; -.z W /./.>XI.b.b.G.b.D.G.G.G.G.D.b.F.,.D.D.J.J.G.G.m.I.b.D.Q.Q.>XL.H.X.X.o.O.L.; R DXDXBXHX",
"ZXHXGXmXMX* y Q !.(.>XH.| G.b.b.D.G.D.G.G.G.G.G.D.F.D.D.J.J.G.D.m.H.(.L.| X.b.Q.Q.>XF.K.L.^ 2.; U NXAXLXDX",
"PXPXLXmXkX* r -.2.Q.L.H.H.b.b.G.G.G.G.G.G.J.G.G.G.D.D.D.D.G.G.G.G.m./.P.P.M.m.P.I.L.K.K.<.1.U.; U DXNXZXKX",
"ZXZXCXDXkX* t U.#.#.o.o.I.I.G.G.G.G.G.G.G.G.G.D.G.G.G.D.D.D.J.F.M.P.(./.P.m.m.m.m.X.<.K.K.+.2.; =.DXLXDXSX",
"IXPXCXc.% *.] { 2.K.<.F.H.G.X.b.G.G.D.G.G.G.G.G.D.G.D.G.D.G.D.D.m.M.m.P.T.P.P.m.F.F.<.2.L.2.U.' Y . 6XGXAX",
"ZXLXDXs.+ K K 1.+.#.K.K.F.b.G.J.G.G.G.G.G.G.G.D.G.D.G.G.D.D.G.D.n.n.^ P././.P.m.L.K.<.>.L.+.2.] Y O 1XNXAX",
"LXwX. % P K S _ ) ..2.F.,.,.F.D.J.G.D.D.D.J.D.J.D.D.G.G.D.J.J.D.H.L.| P././.P.z ,.<.<.o.2.W W S q , + . AX",
"LXsX0Xs.5 I 4.D 1. . ...:.,.,. .J.D.D.D.D.D.D.J.D.D.D.D.D.D.D.G.| m.m.P.P.H.P.m.X. .>. .2.` ' { *.> x.<XNX",
"LXDXBX3XO 5.{ 1. .D W ( 3.>.I.J.,.F.D.,.D.,.D.D.J.D.D.G.J.J.J.D.b.| n.m.m.m.m.H.} W ` ` ( ` +.@.*.+ iXkXNX",
"DXaX+ R 5.*._ E >. .>.>.` 3.2.2.F.D.,.,.,.,.,.D.D.D.D.D.D.D.J.D.| ( m.| m.H.m.m. .` 3._ >._ ) [ 5.P R + NX",
"DXiX. R 5.*.` ` ( >.2.>.( :.L.2.I.<.X. . .,.D.F.D.,.D.J.J.D.D.D. . .X.| | m.n.K.(  .>.>._ ) ) [ &.=.P   mX",
"SXhX. R &.{ D 2._  .>.>.3.<.L.<.,.:. .( } X.X.,.<.D.D.J.D.D.D.,.F. .W } n.L.K.o.<..._ >.1.1._ ' I &.R . NX",
"VXhX1X=.&.&.` ` .. .<.:. .<.<.}  .( (  .X. . . .J.<.D.F.,.D.,.,. . .^ } } | o.<.1.3.3.3.>.1...' ] A 1X1XkX",
"LXLXNX1X  4.2.` >. . .:.:.<. .( (  . .:.,.,.X. .,.,.,.D.,.,.,.:.}  .X. .W W } <. .>.3.>.3._ >.+.]   0XNXNX",
"KXzXkX1X; { !.3. .>.<.,.F.<.,.X.}  . . .:.,. . .X.,.,.,.,.,.X.X.,.:. . .o.o.O.( >.>.>.>.>.>.:.+.5.+ 3XMXDX",
"HXVXDXs.; 4.D `  .K.F.<.F.,.X.,.:.:. .X. .X.,.,. . . . .X. .X.,.<. .(  .o.2.>.( <.>.3.3.<.>. .D ] * 3XMXjX",
"ZXuX. f q 8 D (  .F.,.,.,.,. .,.F.<.,.:. .:. .,. . . .X. .,.:.:.3.3. . .} } ..o.>.3.3.3.<.>.( D 8 9 >   NX",
"SXrX  U A D ` W } F.,.,.F.,.,.J.F.F.F.:. . . . .,. .,.:.,. .X.o.:.>.>... .(  .o.3.>.>.>.>.3.` ` F Y d O NX",
"DXBX  5.] E @.O.O. .}  .X.D.F.J.G.,.X. . .>.:. . . . .:. .O. .O.o.X. . .,.,.,.:.:.:... .+.+.) [ L =.G . NX",
": R e q t 4.W #.O.) ( | D.K.J.,.F.D.,.,.>.<.>.<.:.:.X. . ..._ _ .. .:.X.:.,.:.:.:. .W W +.#.[ [ *.8 ; U R ",
": 9 q 5 8 4.E +.O.^ ( O.K.J.F.,.X.X. . . . .>.>. .,.:.X...o...O.(  . . . .:.:.,.:.:.( ) +.@.[ E ' D I K ; ",
"> q x.=.Y.3 r r E ) ) +.2.K.D.,. .|  . .( ( _ >.:.:.:.X.......O.( ....<.>. . .:.( ....W W D r r r { ] 8 F ",
"A w =.*.r ] r D E [ +.+.1.o.o.,. .o.o...( ` ..>.:.:.X. .:.X.O...W ) o.+.o._ ( _  .1.+.+.[ D r D 8 D ] 5.A ",
"5 0 }.J t r r [ ! { -.+...) }  .o.o.+..._ _ 3.>.,.:. .X.<.o.o.O.( ` +.o.>.3._ _ +.1.+.{ -.@.Q D Q t K *.; ",
"q q ; u t ~ K K ! ] ] [ [ W ) ..O.O.) ) ` ` 3.>. . . . . .o.o.) ` W ` [ +.{ _ { ` ` D D [ ' K F t 7 q ; A ",
"; q L 8 F H F L L ~ H Q E [ [ #.[ ) ) W ` ) { >... . . .X.>...` E E E E [ @.1.1.I [ ' ' K K K ] t 7 u G > ",
"q 9 A 8 u *.H L K K L ] 8 E @.4.#.3 r +.E W 2._ .... .:.>.<...+.E E W r E { -.@.D D I D I P ] ] K -.F F > ",
"> 9 q A 7 L $.L &.L K ! r S E D E r D Q E ' { _ _  .>.:..._ ) ) E Q E E S S K I D D D F &.I K F F H F 5 A ",
"    U ; 5 ; F ! L L G L t E y r r [ Q S [ ' E _ .._ ......_ _ E ~ E Q ~ D D D D D F K K &.I P F 5 ; A > O ",
"NXiX% w q &.&.6 L L L $.H F Q H F { Q H ] ' D _ 1...` +.2.1.[ D ~ ~ ~ Q K K K K F I ] ] ] I L L &.5 U % kX",
"DXiX+ > G &.G -.~ ! J J ~ J L ! $.Q ~ ! ] I ` ' 1._ _ 1.1.1.I S Q ~ ~ ~ ! ] ] ! ] ] K K K L $.$.w : f O hX",
"KXBX. U 9 ! u ! H t 7 y $.$.$.J $.H J ! ] K I ' ` [ 1.1.` I I ' ~ ~ H ~ ! Q Q L &.P 7 F F L L L Y U f . NX",
"6Xv.: > d R u ! t y 7 7 ;.L i H J J L L ! L I ' E ` [ [ ' E I ] ! ~ J ~ L S F F K K 7 K 7 K F H P 0 ; > #X",
". + U 1 w 6 t t t F ! J &.7 6 6 8 ! &.F ! ] K I I ` ` I ' ' ] K J ~ ~ ! H 7 D F A &.&.&.7 7 6 u 9 w w Y O ",
"1 & : : d 6 i 3 5 8 7 A F 7 6 y u %.%.H J J L ! H Q Q K K ! L L u J $.J ! F F 8 A A F A 3 9 q 9 i w 3 % = ",
"8.U o : d 0 3 i 5 A A q q F 7 y y $.~ 7 u u F ~ [ ! ~ ! Q *.$.G 7 u L F L F A 8 8 P D > ; G Y j ; 4 e # =.",
"nXlX% : * $ $ i > G A 9 6 F u 6 u J J 0 6 u u ~ u ~ ! K K F F F 7 6 u F &.A 7 A ; A A A 0 w * O $ 4 % O NX",
"zXhX. s.f.4 i * q G A q q A u 6 u ~ H 0 7 6 t F ~ [ Q ~ L L F 7 q 6 q F &.F A F P A 5 A w e 9 d d c s.= xX",
"GXsX: |.#Xf._.* i e w A i 0 u u u ~ J u u u 7 F *.Q S H ] *.P 5 u 0 w F &.A q F F A w G 9 : e |.j.#Xr.= cX",
"PXaXl.XXh.s.%.* d e e w w 0 0 u 7 J i u i q 7 u S S L K K F F 7 q q q 7 P 7 q A > A d w e w * T s.j.XXg.fX",
"ZXaX@XoXh.;.0.* e e w e w e e 0 0 u u 0 q q 6 q 6 J *.' F F A Y 0 0 G 9 A q w A F q > 4 e j 4 s.c XX#Xl.cX",
"vXgXd.oX:XXX).$ : f f e e d i 9 9 u 4 e w 0 9 u 6 7 7 8 7 A A 5 9 e w > w e i U A > U Y l : % h.#X+X+Xh.xX",
"vXgXv.[.XX).c %.f : f l ; : : 9 e f U U U > > : 0 7 i u w i e > : e U j f d 9 > > * f j 4 j k w.y.OXXXh.bX",
"vXuXv k.e.c 0.y.l $ j 4 O % # f T : U c.: T ; > R 9 0 9 9 R * % = T c.f f f : # O $ 4 4 & k s.w.C C ).h.bX",
"bXvXvX7XXXp._.a.j.w.w.6.6.s.s.= : l : 6.+ & . > : > j Y : U % > : & h l l O : c.0.T s.T k j.j.s j.a.`.q.fX",
"vXvXfX9X].].y.a.w.j.w.s.s.s.c.% O 6., h - & > & j k % f , & : & @ & l , h = , d.w.0.w.j.u.y.q.V c h.).s xX",
"vXdXV oXOXp.).).u.k d.d.s.0.s.0.h 6.1 1 1 < v., . , 1 T : O 6.z.- b 1 1 6.7.g l T r.w.r.l.u.p.:X:X+XOXc dX",
"fXgXl.l.+Xk.).C j.B 6.0.g.T w.a 6.2 < 1 1 2 7.7.h , U - 1 , 1 6.b v , 2 m a h q.M g.B B '.k.`.+X[.a.9XeXcX",
"vXgXt.oXC ).s C c i.r.6.d.a 0.= - 2 2 7.n n 1 9.v.1 & . 1 8.6.1 2 n b b < - a a M t.V e.[.+X+X`.OXi.rXbXbX",
"bXdXi.[.`.].+Xa.y.B i.k g.M l g 2 2 2 2 2 2 v.8.z.9.b 1 n 7.7.2 v < < v b - M b 6.q.t.e.M C [.`.].h.eXbXbX",
"cXgXz.oXV +XOX).C B q.q.t.b 6., 1 b b m a - z.7.z.n Z n n Z n v < < v b b g a m m 0.g.t.M e.i.`.'.p.eXcXCX",
"vXaXb oX:X[.].C ).s ].i.s.6., 6.b b a h M N n n z.Z Z 2 v v v v M m s g a a g g 0.0.g.j.t.V a.'.-Xi.eXcXBX",
"ZXgXuX:X-X].].a.C C `.i.6.6.t.6.g g b g b 6.- n z.N Z v n b v v m b m g M M 6.k 6.0.g.g.e.B V `.k.+XuXvXDX",
"vXbXvX9Xk.].C s C ).h.i.V 0.d., m g 6.m v M < t.Z Z Z v v v N V g g g h g g h , 6.d.h.d.q.e.V u.'.M 9XxXxX",
"ZXZXgX9X@Xu.a.).).).[.[.h.XXd.d.0.a g g g g M b < v b v v - a a M M m h 6.t.d.0.0.s.u.w.g.k.i.`.:XfXfXvXZX",
"IXZXZXeXoX'.k.a.C ).[.].u.).l.j.0.g k m M g 6.< < v n n M 2 M M g g g k k t.r.w.w.0.0.u.].`.i.+X-XfXbXvXCX",
"ZXIXZX6XM +X+XC OX8X+X+Xi.i.OXB 0.r.r.w.w.0.r.M v a - - - < 7.t.t.s.d.t.r.s.0.k t.0.B q.k.k.u.+X-Xa eXbXxX",
"SXSXPXaXeX-X-X].OX].).).q.i.i.q.k j.B B w.j.0.t.M b b b t.M d.6.t.w.w.s.0.t.r.w.q.r.q.B g.h.u.XX].[.eXbXCX",
"SXSXLXZXvXd.i.+X[.+Xs M B B q.q.u.s T u.0.0.y.0.C z.z.t.t.t.6.q.0.w.q.w.w.0.r.0.g.XXq.e.k e.`.g.'.i.uXcXCX",
"KXZXvXzXbXcXdX'.+X+Xa.a.).C V q.B OX).q._.h.k r.M 0.V V 7.t.t.r.r.q.r.0.w.0.q.0.M t.s k k.XXl.oX-Xl.rXCXxX",
"KXLXLXZXZXvXdXi.+X[.[.p.).C s V V '.).h.h.).c q.u.t.t.N 6.q.0.B 0.k i.N q.q.q.i.q.q.i.g.oXl.g.@X;Xi.qXZXLX",
"PXPXLXbXvXt.t.s i.i.[.+X:XOX'.`.].p.].:Xp.|.XXh.p.V t.t.0.q.q.w.u.0.`.C q.q.B h.e.m oX@XoXd.l.oXl.z.qXcXLX",
"SXLXLXsXZX@X@XM i.k.-X[.`.i.l.k.p.].].+X]._.a.).OXi.i.g.i.i.r.i.C N [.C i.i.C -Xk.M -X-XeXeXrXqXeXqXdXCXDX",
"LXSXbXZXbXt.l.s k.V k.p.e.`.'.t.p.:XOX[.OXOX).[.:Xl.l.k.k.l.u.h.V V ].i.[.k.k.-X'.l.@X7XcXZXCXZXCXCXCXLXLX",
"ZXZXZXZXZXvXdXN l.'.fXdXk.k.C [.].[.].).).].[.[.[.k.'.i.k.#Xk.h.k.k.'.k.[.i.i.;Xl.oXl.;XcXCXxXZXxXCXCXDXGX",
"KXbXLXxXcXZXdXoX:X'.bXgXXX-Xi.:X:X+X].).p.k.[.:X-X-X-Xl.oX7XoXk.k.k.i.k.-Xl.oX-X:X;XoX9XvXCXZXZXZXZXCXCXKX",
"HXHXGXSXZXKXLXZXZXvXCXgXm v.7.LXvXbXaXoXk.k.6.9XvXZXcXh wXPX6X7.+Xe., k.@Xk.;XvXcXZX9.v.KXPXZXZXLXLXLXLXLX",
"HXHXHXZXHXHXLXLXZXVXLXbXqXqXqXLXcXZXuXt.@Xl.rXsXZXSXSX9XsXLXaXqXqX9Xk.;X6X9XuXcXZXLXqXuXKXLXLXKXLXKXLXLXKX",
"HXHXZXHXHXHXLXLXLXPXLXPXZXPXZXZXPXZX9X7.oXoXcXvXZXSXHXHXVXZXCXZXvXfXa v.6.vXbXvXZXcXSXLXZXZXZXLXLXKXKXKXKX",
"HXHXHXSXZXLXLXHXZXLXZXZXZXZXLXbXvXZXcXfXfXsXZXxXZXSXZXKXCXCXLXCXfXbXfXfXdXbXvXvXZXxXLXZXPXZXZXSXKXKXKXKXKX"
};
