/* XPM */
static char *e04356e9d1084b9d8c14baf5c15d4765yPcqx0nMkmQnH7Ry[] = {
/* columns rows colors chars-per-pixel */
"50 50 203 2 ",
"   c None",
".  c #140602",
"X  c #160902",
"o  c #1A0C05",
"O  c #1B0E08",
"+  c #1D110B",
"@  c #1E1413",
"#  c #1E1A1E",
"$  c #210E07",
"%  c #220E08",
"&  c #221307",
"*  c #21150A",
"=  c #22180B",
"-  c #221612",
";  c #241B13",
":  c #241B1C",
">  c #2A1C1D",
",  c #25171A",
"<  c #28201C",
"1  c #271F22",
"2  c #2C1E25",
"3  c #2C2425",
"4  c #2C252A",
"5  c #272329",
"6  c #2B2837",
"7  c #322A34",
"8  c #302E3A",
"9  c #322731",
"0  c #3A373D",
"q  c #33292C",
"w  c #0F274F",
"e  c #332F49",
"r  c #332F42",
"t  c #3A3B43",
"y  c #34324C",
"u  c #393647",
"i  c #363454",
"p  c #3A3A5C",
"a  c #103263",
"s  c #103C7E",
"d  c #3B3B63",
"f  c #3E3F6B",
"g  c #403B46",
"h  c #3F406E",
"j  c #3E4060",
"k  c #464144",
"l  c #464449",
"z  c #424558",
"x  c #464D6A",
"c  c #434764",
"v  c #4C5269",
"b  c #4D5366",
"n  c #565C6F",
"m  c #434273",
"M  c #444978",
"N  c #4C5675",
"B  c #4F5B7D",
"V  c #505C7F",
"C  c #596176",
"Z  c #013884",
"A  c #003592",
"S  c #003A94",
"D  c #003699",
"F  c #003B9A",
"G  c #113E96",
"H  c #213F89",
"J  c #18488C",
"K  c #01429B",
"L  c #0C459B",
"P  c #0B4A9E",
"I  c #1A489A",
"U  c #21499D",
"Y  c #2B4D9F",
"T  c #33499C",
"R  c #3D529F",
"E  c #0845A2",
"W  c #0B48A4",
"Q  c #154EA4",
"!  c #1955A6",
"~  c #2D4FA0",
"^  c #314EA1",
"/  c #225AA9",
"(  c #2759A6",
")  c #3452A2",
"_  c #3C53A3",
"`  c #3B5AA7",
"'  c #2D58B2",
"]  c #396AB1",
"[  c #464A8D",
"{  c #464787",
"}  c #45528A",
"|  c #484E95",
" . c #474F9F",
".. c #494F9A",
"X. c #474C93",
"o. c #4B5299",
"O. c #525D9A",
"+. c #4D618F",
"@. c #56649C",
"#. c #596B99",
"$. c #657699",
"%. c #4C54A3",
"&. c #4D58A4",
"*. c #4B56AB",
"=. c #4D5BAC",
"-. c #4655A3",
";. c #5155A4",
":. c #525AA6",
">. c #535BAB",
",. c #585CAF",
"<. c #545FB3",
"1. c #4965AE",
"2. c #5662AC",
"3. c #5866AF",
"4. c #5B6AA7",
"5. c #5D73A4",
"6. c #5F77AB",
"7. c #466EB4",
"8. c #4A6AB1",
"9. c #5461B2",
"0. c #5C6BB3",
"q. c #5B6AB7",
"w. c #4871B5",
"e. c #5977B9",
"r. c #6C7BA4",
"t. c #6072AB",
"y. c #657AAD",
"u. c #636BB3",
"i. c #6064B1",
"p. c #6272B6",
"a. c #6275B9",
"s. c #6877BA",
"d. c #667CBC",
"f. c #6B7CBB",
"g. c #677CC0",
"h. c #5D83BD",
"j. c #7180A7",
"k. c #6582BC",
"l. c #6B81BE",
"z. c #7183BF",
"x. c #7C93BF",
"c. c #7694BF",
"v. c #6585C2",
"b. c #6C85C2",
"n. c #6E8AC5",
"m. c #6C86CA",
"M. c #6E8DCE",
"N. c #638CC3",
"B. c #7287C3",
"V. c #718BC6",
"C. c #7B8EC5",
"Z. c #738DCA",
"A. c #7D93C5",
"S. c #7591CB",
"D. c #7B95CC",
"F. c #7D99CD",
"G. c #7496C7",
"H. c #748ED2",
"J. c #7493D1",
"K. c #7C99D6",
"L. c #7798D5",
"P. c #839BCD",
"I. c #8495C9",
"U. c #839ED1",
"Y. c #849ED9",
"T. c #8BA4CF",
"R. c #87A2D3",
"E. c #8BA4D3",
"W. c #8EA9D6",
"Q. c #83A2DB",
"!. c #92ACD6",
"~. c #94AEDA",
"^. c #97AAD8",
"/. c #8EB0DD",
"(. c #94B0D6",
"). c #98B0D6",
"_. c #96B0DB",
"`. c #9BB3DB",
"'. c #A1B3DC",
"]. c #A1B9DE",
"[. c #93AEE1",
"{. c #94B3E3",
"}. c #9CB7E5",
"|. c #B2C5DF",
" X c #ACC3E4",
".X c #ACC6EE",
"XX c #B5CBEA",
"oX c #B6C9E7",
"OX c #BDD2EA",
"+X c #BFD3E6",
"@X c #B6CEF0",
"#X c #C0D4EB",
"$X c #CDDEED",
"%X c #C7D8ED",
"&X c #C7DBF1",
"*X c #CEE2EF",
"=X c #D2E2EF",
"-X c #CDE1F6",
";X c #D5E5F4",
":X c #DBECF4",
">X c #D6E9F7",
",X c #DEF1FB",
"<X c #E4F4FE",
/* pixels */
"                                                                      - + * +                       ",
"                                                                  * O , 7 0 3 + -                   ",
"                                                                $ : x 5.k.k.6.t *                   ",
"                                                              % 4 r.}.{.T.S.J.y.3 =                 ",
"                                                              O C .X>XXX~.U.n.Z.u %                 ",
"                                                              @ r.@X>X#X_.E.V.n.t %                 ",
"                                                            $ 3 A.XX>XOX`.E.Z.y.3 *                 ",
"                                                            X t W. X>XOX`.W.J.N o -                 ",
"                                                            o n {. X;XXX_.W.Z.u . o o o $ -         ",
"                                                          * - r.[.].$X X~.~.K.$.z b b c 8 @ o @     ",
"                                                          $ l !.{.~.].`.~.~.~./.!.{.{.{.T.$.t O -   ",
"                                          * $ o o o o o % o 0 x._.~.(.!.~.R.P.!.~.~._._._.}.R.l +   ",
"                                      = O 1 u x V V +.N z q @ a ] D._._.P.0.2.R.~.~.~.~.~.W.K.6.3 - ",
"                                  - o 3 x 5.n.J.L.L.D.S.m.t.} J D W h.A.i.%.b.E.~.~.~.!.E.D.S.n.u & ",
"                                * + u 5.L.Y.E.W.(.T.z.0.>.2.>.=.) F F ^ 2.B.~.~.!.!.E.F.Z.n.M.#.> - ",
"                              * + c n.Y.~.~.~.(.C.u.%.>.s.l.d.d.b.8.G D w.`.~.!.E.P.Z.V.n.V.k.0 $   ",
"                            - O c m.!.OX+X`.T.z.%.:.b.P.~.^.F.V.V.B.1.F W G.!.F.S.n.V.n.V.S.N O -   ",
"                            $ r g.W.#X>X=X^.s. .u.I.(.~.~.~.W.D.n.V.z.` D / S.Z.V.n.n.l.f.e.9 %     ",
"                          * : 4.Y. X=X:X#Xs. .s.E.~.~.~.~.~.^.R.V.V.n.p.J w +.J.m.q.q.2.9.X., -     ",
"                          $ c m.W.%X;X;XI. .s.T.~.(.~.(.(.~.~.W.S.n.V.d.} , 9 M h p d d d y =       ",
"                        = @ @.D.'.;X:X'.;.3.E.].~.~.~.~._.~.~.~.D.V.V.b.2.r $ * $ & = * * = -       ",
"                        & 9 k.K.`.#X|.u.;.I.#X*X X~.~.{.~._.~.~.F.n.V.n.q.f * -                     ",
"                        % p m.P.~.~.v.T f.`.*X:XOX~.~.~.~.~.~.W.D.V.V.n.a.{ ;                       ",
"                        $ x m.U._.E.Q L T._. XoX].~.~._.~.~.~.~.D.n.V.n.q.| 3 +                     ",
"                        o N M.U._.N.A w.`.~.~._.~.~.~.~._.~.~.!.S.V.V.n.3.| 4 *                     ",
"                        * m M.F._.] S n.^.~.~.~.~.~._.~.~.~.~.R.V.n.V.b.3.| 4 *                     ",
"                        $ d m.Z.R.Q Q W.~.~._.~.~.~._._.~.~.W.D.V.V.V.k.2.[ > *                     ",
"                        * 0 v.D.k.K 7.).~._.~.~.~.~.~.~.~.~.U.Z.n.n.n.0.:.M *                       ",
"    - * * * & & * * * @ * , x l.7.A e._.~.~.~.~.~.~.~.~.!.R.Z.V.n.n.l.2.=.i =                       ",
"  - ; 3 4 2 4 > , , 1 , - * : o.) A h.`.~.~.~.~.~.~.~.!.U.Z.V.V.n.n.0.2...4 *                       ",
"  * w T ;.:.:.O.O.@.O.4.@.#.#.0.` A / G.E.!.!.~.!.E.R.D.V.n.n.V.n.p.>.>.d = -                       ",
"- # Z ' B.C.S.S.J.Z.Z.Z.m.Z.Z.V.e.( A ! b.D.D.D.D.S.V.n.V.n.V.n.s.,.>.X.4 *                         ",
"= 6 G E ( 7.] 7.e.l.C.B.Z.n.n.G.R.A./ S 7.V.n.n.n.n.n.V.n.n.b.p.2.:.%.e *                           ",
"* 6 ) I F D D D F ! w.B.n.m.R. X>X`.8.F ( V.n.n.V.V.V.n.n.d.0.:.:.%.i * -                           ",
"- > { <._ ) ) T I F K w.V.E.%X,X#Xz.2.P Q s.l.b.b.l.d.a.3.,.>.=.| y * -                             ",
"  * 8 [ :.,.>.:.:.) F E S.=X:X&XA.&.a.J s =.2.2.3.2.2.>.>.>.%.f 4 * -                               ",
"  - * < 7 d o.>.>.:.~ A N.<X&XA. .z.|.g @ i h [ o.%.o...M d 4 = *                                   ",
"      - & * y &.:.:.&.F / ].C.%.%.].;Xk X * ; < 3 3 3 < ; + = -                                     ",
"          * , [ :.:.:.U F 1.2.;.q.OX=Xk X     - + = + - -                                           ",
"            * m >.>.&.) K ~ ;.>.C.-X$Xk .                                                           ",
"            * i *.>.:._ K U &.0.F.-X$Xk .                                                           ",
"            * 4 ..:.>.&.L K -.d.U.>X$Xt X                                                           ",
"              * p >.>.:.Y K ~ n.N.E.A.5 $                                                           ",
"              * , d &.,.-.L K ( P E Z # *                                                           ",
"                * = 6 p m T I K K U H ; -                                                           ",
"                  - * = = 8 [ *.*.>.{ ; -                                                           ",
"                        - & 3 { <.9.h -                                                             ",
"                            * 3 M :.e =                                                             ",
"                              * > 6 ; -                                                             ",
"                                - * -                                                               "
};
